# xmcd
#
# Track frame offsets:
# 150
# 11848
# 23178
# 33782
# 45466
# 59389
# 67722
# 80867
# 91710
# 102362
# 120119
# 128223
# 138970
# 153666
# 162146
# 172570
# 184202
#
# Disc length: 2662 seconds
#
#
# Revision: 0
# Processed by: cddbd v1.4PL0 Copyright (c) Steve Scherf et al.
# Submitted via: FreeRIP 2.35 
#
DISCID=c80a6411
DTITLE=Jimmy Green - Wheels - Wheels
DYEAR=1900
DGENRE=Country
TTITLE0=Quatermaster store
TTITLE1=Wheels
TTITLE2=Donna
TTITLE3=Zambesi
TTITLE4=Geisterreiter
TTITLE5=Over and over
TTITLE6=Lady in the blue mercedes
TTITLE7=Dance on
TTITLE8=Three steps to Heaven
TTITLE9=Now (is the moment)
TTITLE10=All shoock up
TTITLE11=At the top
TTITLE12=It keeps right on a hurtin
TTITLE13=Kon-tiki
TTITLE14=Memorys are made of this
TTITLE15=Amapola
TTITLE16=Last Date
EXTD=
EXTT0=
EXTT1=
EXTT2=
EXTT3=
EXTT4=
EXTT5=
EXTT6=
EXTT7=
EXTT8=
EXTT9=
EXTT10=
EXTT11=
EXTT12=
EXTT13=
EXTT14=
EXTT15=
EXTT16=
PLAYORDER=
